<?xml version="1.0" encoding="UTF-8" standalone="no"?>
<svg width="223px" height="31px" viewBox="0 0 223 31" version="1.1" xmlns="http://www.w3.org/2000/svg" xmlns:xlink="http://www.w3.org/1999/xlink">
    <!-- Generator: Sketch 44.1 (41455) - http://www.bohemiancoding.com/sketch -->
    <title>Logo</title>
    <desc>Created with Sketch.</desc>
    <defs>
        <linearGradient x1="1.07871255%" y1="37.6992127%" x2="96.1623632%" y2="54.6046096%" id="linearGradient-1">
            <stop stop-color="#006EB1" offset="0%"></stop>
            <stop stop-color="#3FDBC2" offset="100%"></stop>
        </linearGradient>
        <linearGradient x1="32.6329223%" y1="23.9782928%" x2="70.6830596%" y2="65.0875582%" id="linearGradient-2">
            <stop stop-color="#00F3F3" offset="0%"></stop>
            <stop stop-color="#216FB2" offset="100%"></stop>
        </linearGradient>
        <linearGradient x1="36.0441721%" y1="26.6648808%" x2="101.34339%" y2="13.8489317%" id="linearGradient-3">
            <stop stop-color="#EAFFA0" offset="0%"></stop>
            <stop stop-color="#8EE61B" offset="100%"></stop>
        </linearGradient>
        <radialGradient cx="50%" cy="63.6385711%" fx="50%" fy="63.6385711%" r="73.3594824%" gradientTransform="translate(0.500000,0.636386),scale(1.000000,0.922415),translate(-0.500000,-0.636386)" id="radialGradient-4">
            <stop stop-color="#DE1818" offset="0%"></stop>
            <stop stop-color="#1B8FE6" offset="100%"></stop>
        </radialGradient>
        <linearGradient x1="0%" y1="60.4912267%" x2="100%" y2="38.6056477%" id="linearGradient-5">
            <stop stop-color="#1E6BB5" offset="0%"></stop>
            <stop stop-color="#0A6CBD" offset="53.095319%"></stop>
            <stop stop-color="#55C8F7" offset="100%"></stop>
        </linearGradient>
        <linearGradient x1="40.9798419%" y1="0%" x2="58.5114648%" y2="68.7167272%" id="linearGradient-6">
            <stop stop-color="#006EB1" offset="0%"></stop>
            <stop stop-color="#3FDBC2" offset="100%"></stop>
        </linearGradient>
        <linearGradient x1="23.1592242%" y1="0%" x2="75.3270857%" y2="68.7167272%" id="linearGradient-7">
            <stop stop-color="#08D6E5" offset="0%"></stop>
            <stop stop-color="#146CB9" offset="100%"></stop>
        </linearGradient>
    </defs>
    <g id="Page-1" stroke="none" stroke-width="1" fill="none" fill-rule="evenodd">
        <g id="Logos" transform="translate(-962.000000, -466.000000)">
            <g id="Logo" transform="translate(962.000000, 466.000000)">
                <g id="CAN" transform="translate(36.528026, 6.056995)">
                    <path d="M15.9620781,2.090113 C15.2877206,1.49906319 13.3489428,0.148092172 10.1457447,0.148092172 C4.58229536,0.148092172 0.142775159,4.5668932 0.142775159,10.4211009 C0.142775159,16.2753087 4.58229536,20.6941097 10.1457447,20.6941097 C13.3489428,20.6941097 15.2877206,19.3431387 15.9620781,18.7520889 L15.9620781,14.5021592 C15.4844082,15.093209 13.6580233,16.6693419 10.679611,16.6693419 C7.27972534,16.6693419 4.38560776,14.2207069 4.38560776,10.4211009 C4.38560776,6.62149494 7.27972534,4.14471475 10.679611,4.14471475 C13.6580233,4.14471475 15.4844082,5.74899282 15.9620781,6.34004265 L15.9620781,2.090113 L15.9620781,2.090113 Z M31.8094793,20.4126574 L36.192803,20.4126574 L28.9996564,0.429544467 L24.166761,0.429544467 L16.9736144,20.4126574 L21.3850363,20.4126574 L22.818046,16.4160348 L30.3483714,16.4160348 L31.8094793,20.4126574 L31.8094793,20.4126574 Z M24.2510557,12.391267 L26.5832087,5.9178642 L28.9153617,12.391267 L24.2510557,12.391267 L24.2510557,12.391267 Z M51.2815522,0.429544467 L51.2815522,13.2919143 L42.0372345,0.429544467 L37.7944021,0.429544467 L37.7944021,20.4126574 L42.0372345,20.4126574 L42.0372345,7.55028752 L51.2815522,20.4126574 L55.5243846,20.4126574 L55.5243846,0.429544467 L51.2815522,0.429544467 L51.2815522,0.429544467 Z" id="Shape" fill="#BD091F"></path>
                    <rect id="Rectangle" fill="#BD0A20" x="23.2118975" y="4.96855901" width="6.66737639" height="8.94445853"></rect>
                    <path d="M26.6160693,5.66820772 L25.9826832,6.85391176 C25.910812,6.98277829 25.7820405,6.97082558 25.6532692,6.89884968 L25.1947143,6.66052525 L25.5364821,8.48174179 C25.6083533,8.81446796 25.3777584,8.81446796 25.2639591,8.67060284 L24.4636917,7.7714104 L24.3337699,8.22804169 C24.3187874,8.28800706 24.252913,8.35098968 24.1540856,8.3359911 L23.1421389,8.12244198 L23.4079331,9.09233417 C23.4648327,9.30814628 23.5092154,9.39749987 23.3504908,9.45441914 L22.9898002,9.624568 L24.7318014,11.0447674 C24.800751,11.0984663 24.8355868,11.1951019 24.8110404,11.2825986 L24.6585782,11.7847769 C25.2583749,11.715383 25.7958022,11.6109811 26.3959029,11.5466833 C26.4488793,11.541007 26.5375685,11.6287565 26.5372046,11.6903757 L26.4577326,13.5301593 L26.7493568,13.5301593 L26.7034515,11.6943214 C26.703085,11.6327022 26.7835454,11.541007 26.8365221,11.5466833 C27.4366226,11.6109814 27.9740506,11.715383 28.5738471,11.7847769 L28.4213854,11.2825986 C28.396839,11.1951019 28.4316745,11.0984663 28.5006241,11.0447674 L30.242625,9.624568 L29.8819347,9.45441914 C29.7232096,9.39749987 29.7675926,9.30814628 29.8244921,9.09233417 L30.0902872,8.12244198 L29.0783394,8.3359911 C28.9795122,8.35098968 28.9136379,8.28800706 28.8986548,8.22804169 L28.7687333,7.7714104 L27.9684662,8.67060284 C27.8546666,8.81446796 27.6240712,8.81446796 27.6959427,8.48174179 L28.0377099,6.66052525 L27.579156,6.89884968 C27.4503815,6.97082558 27.3216133,6.98277829 27.2497418,6.85391176" id="Shape" fill="#FFFFFF"></path>
                </g>
                <g id="Bird">
                    <path d="M22.6384386,15.6242815 C22.2966617,16.0499257 17.9731934,17.8007167 16.0658872,12.740189 C14.9668261,9.8241236 16.3520232,6.74308948 17.29426,4.55070506 C17.987177,2.93843465 18.2080408,1.74998087 18.2080408,1.74998087 C18.2080408,1.74998087 20.6915198,6.75253685 21.5386047,9.31173407 C22.221465,11.3747789 22.9802154,15.1986373 22.6384386,15.6242815 L22.6384386,15.6242815 L22.6384386,15.6242815 L22.6384386,15.6242815 Z" id="backwing-2" fill="url(#linearGradient-1)" opacity="0.428894928"></path>
                    <path d="M21.2880471,12.4075618 C21.0701674,12.9055166 17.3557385,15.6948461 14.1788534,11.2912226 C12.4916792,8.95255427 13.0996559,6.04757497 13.3496633,3.74621961 C13.5704104,1.71421025 13.3496633,0.131372711 13.3496633,0.131372711 C13.3496633,0.131372711 17.0678002,4.33264733 18.5609361,6.58947573 C19.7645973,8.4087721 21.5059267,11.909607 21.2880471,12.4075618 L21.2880471,12.4075618 L21.2880471,12.4075618 L21.2880471,12.4075618 Z" id="backwing-1" fill="url(#linearGradient-2)"></path>
                    <path d="M21.436706,7.68505462 C25.07764,4.18106069 28.8241317,8.35320947 28.8241317,8.35320947 L35.5484845,9.90777714 C35.5484845,9.90777714 29.0467413,8.39396117 27.0044434,10.8219517 C25.2811318,12.8707146 27.1177662,16.567818 25.3325138,20.1888334 C24.3331724,22.2157909 20.7665934,24.3389345 18.2212934,26.2295211 C16.2195959,27.716333 15.0233911,29.2387545 15.0233911,29.2387545 C15.0233911,29.2387545 16.0866092,27.1123275 16.7213214,23.934431 C17.8423083,18.3218399 19.1120258,9.9223008 21.436706,7.68505462 L21.436706,7.68505462 L21.436706,7.68505462 Z" id="body-3" fill="url(#linearGradient-3)"></path>
                    <path d="M21.436706,7.68505462 C25.07764,4.18106069 28.817526,8.34042763 28.817526,8.34042763 L35.9078351,9.9836267 C35.9078351,9.9836267 29.1000779,8.38368272 27.05778,10.8116732 C25.3344683,12.8604361 27.2085602,16.3690719 25.4233078,19.9900873 C24.7630913,21.3292 23.0797084,23.1201807 21.2312475,24.2581472 C20.146279,24.9260854 18.4634829,25.5748915 17.3242242,26.5553702 C15.1560161,28.4213921 14.0036533,30.443001 15.4023398,28.1563564 C17.535949,24.6682223 17.7957721,11.1890485 21.436706,7.68505462 L21.436706,7.68505462 L21.436706,7.68505462 Z" id="body-2" fill="url(#radialGradient-4)" opacity="0.934154803"></path>
                    <path d="M25.2023014,6.33086643 C25.2023014,6.33086643 23.8579735,6.35843735 23.1328848,7.22857907 C22.2956511,8.23330021 21.6579638,9.79111923 22.7968814,11.8397774 C24.922162,15.6626821 26.090588,16.8302838 23.902136,21.1412925 C22.7781329,23.3554545 19.9215371,25.2426553 18.2321914,26.6835689 C16.5428456,28.1244827 12.4340104,33.802179 15.2174631,28.1242855 C18.0009158,22.4463918 16.7513282,17.606674 19.1013061,11.7073358 C19.71561,10.1651996 20.3266459,8.97561887 20.9954233,8.15093265 C22.8850084,5.82083743 25.2023014,6.33086643 25.2023014,6.33086643 L25.2023014,6.33086643 L25.2023014,6.33086643 Z" id="body-1" fill="url(#linearGradient-5)"></path>
                    <path d="M13.0468578,18.9567529 C9.14460053,18.7090331 5.51166987,14.1515647 3.20996503,11.9453923 C1.02507586,9.85118712 0.0713277547,10.0964763 0.0713277547,10.0964763 C0.0713277547,10.0964763 7.92789118,9.83045483 11.7083702,10.2206714 C14.7559266,10.5352365 20.1187133,11.7484144 20.4753,12.4132783 C20.8318867,13.0781423 20.6533258,19.4396202 13.0468578,18.9567529 L13.0468578,18.9567529 L13.0468578,18.9567529 Z" id="frontwing-2" fill="url(#linearGradient-6)" opacity="0.563141325"></path>
                    <path d="M13.4507016,7.5359411 C16.1809754,8.90145797 20.7445693,11.9201833 20.8346928,12.6663011 C20.9248163,13.4124189 18.4351854,19.2885692 11.5102575,16.1625304 C7.77668658,14.4771283 6.37437953,10.4952326 5.05807472,7.5359411 C3.93293245,5.00641759 2.63193711,3.32717297 2.63193711,3.32717297 C2.63193711,3.32717297 10.0638102,5.84202398 13.4507016,7.5359411 L13.4507016,7.5359411 L13.4507016,7.5359411 L13.4507016,7.5359411 Z" id="frontwing-1" fill="url(#linearGradient-7)"></path>
                </g>
                <path d="M100.182813,26.5115579 L100.182813,6.43943411 L96.4397835,6.43943411 L96.4397835,26.5115579 L100.182813,26.5115579 L100.182813,26.5115579 Z M116.326411,26.5115579 L116.326411,18.9414998 C116.326411,17.0776597 117.497894,15.4432154 119.383695,15.4432154 C121.269495,15.4432154 122.040959,17.0203108 122.040959,18.8841509 L122.040959,26.5115579 L125.526834,26.5115579 L125.526834,18.8841509 C125.526834,14.6403304 123.555315,12.1743266 119.555131,12.1743266 C117.726476,12.1743266 116.097829,12.7478159 114.840629,14.7550283 C114.040592,12.8051648 112.3548,12.1169777 110.669009,12.1169777 C109.32609,12.1169777 107.697443,12.633118 106.954552,14.0668412 L106.697398,12.3463734 L103.468678,12.3463734 L103.468678,26.5115579 L106.954552,26.5115579 L106.954552,18.9414998 C106.954552,17.0776597 108.068889,15.3858664 109.95469,15.3858664 C111.869064,15.3858664 112.840537,17.0776597 112.840537,18.9414998 L112.840537,26.5115579 L116.326411,26.5115579 L116.326411,26.5115579 Z M141.927587,26.5115579 L141.927587,18.9414998 C141.927587,17.0776597 143.09907,15.4432154 144.98487,15.4432154 C146.870671,15.4432154 147.642135,17.0203108 147.642135,18.8841509 L147.642135,26.5115579 L151.12801,26.5115579 L151.12801,18.8841509 C151.12801,14.6403304 149.156491,12.1743266 145.156307,12.1743266 C143.327651,12.1743266 141.699005,12.7478159 140.441805,14.7550283 C139.641768,12.8051648 137.955976,12.1169777 136.270184,12.1169777 C134.927266,12.1169777 133.298619,12.633118 132.555728,14.0668412 L132.298573,12.3463734 L129.069854,12.3463734 L129.069854,26.5115579 L132.555728,26.5115579 L132.555728,18.9414998 C132.555728,17.0776597 133.670065,15.3858664 135.555866,15.3858664 C137.47024,15.3858664 138.441713,17.0776597 138.441713,18.9414998 L138.441713,26.5115579 L141.927587,26.5115579 L141.927587,26.5115579 Z M154.756748,12.3750479 L154.756748,19.8017337 C154.756748,24.1889265 157.214004,26.7409536 160.585587,26.7409536 C162.557106,26.7409536 163.900025,26.0527665 165.357235,24.6190434 L165.585817,26.5402324 L168.700246,26.5402324 L168.700246,12.3750479 L165.242944,12.3750479 L165.242944,19.6010124 C165.242944,21.7515971 163.785734,23.5580883 161.642778,23.5580883 C159.414105,23.5580883 158.242622,21.9236439 158.242622,19.7730592 L158.242622,12.3750479 L154.756748,12.3750479 L154.756748,12.3750479 Z M185.643881,26.5115579 L185.643881,19.0848721 C185.643881,14.6403304 182.986616,12.1456522 179.672178,12.1456522 C177.900668,12.1456522 176.472031,12.8625137 175.043394,14.2675624 L174.814812,12.3463734 L171.700383,12.3463734 L171.700383,26.5115579 L175.157685,26.5115579 L175.157685,19.2855934 C175.157685,17.1350087 176.614895,15.3285175 178.75785,15.3285175 C180.986524,15.3285175 182.158007,16.9629619 182.158007,19.1135466 L182.158007,26.5115579 L185.643881,26.5115579 L185.643881,26.5115579 Z M192.129893,12.3176989 L192.129893,26.5115579 L188.644019,26.5115579 L188.644019,12.3176989 L192.129893,12.3176989 L192.129893,12.3176989 Z M188.329719,8.38929757 C188.329719,5.66522362 192.444193,5.66522362 192.444193,8.38929757 C192.444193,11.1133715 188.329719,11.1133715 188.329719,8.38929757 L188.329719,8.38929757 L188.329719,8.38929757 Z M194.901449,12.3750479 L194.901449,15.5579132 L201.130307,15.5579132 L194.38714,25.0491603 L194.38714,26.5115579 L206.244827,26.5115579 L206.244827,23.0706224 L199.701669,23.0706224 L206.187682,14.0381667 L206.187682,12.3750479 L194.901449,12.3750479 L194.901449,12.3750479 Z M222.302708,20.690642 C222.84559,14.8697261 219.902597,11.9449309 215.188095,11.9449309 C210.616457,11.9449309 207.702037,15.0417729 207.702037,19.3429423 C207.702037,23.8735074 210.587884,26.884326 215.44525,26.884326 C217.588205,26.884326 220.016888,26.1387899 221.502671,24.5903689 L219.273997,22.3824353 C218.47396,23.2139947 216.788169,23.7014606 215.502395,23.7014606 C213.04514,23.7014606 211.530784,22.4397842 211.302202,20.690642 L222.302708,20.690642 L222.302708,20.690642 Z M211.359348,17.7945213 C211.873657,15.9593557 213.416585,15.0417729 215.302386,15.0417729 C217.302478,15.0417729 218.731115,15.9593557 218.959697,17.7945213 L211.359348,17.7945213 L211.359348,17.7945213 Z" id="Immunize" fill="#006EB1"></path>
            </g>
        </g>
    </g>
</svg>